<svg width="54" height="54" viewBox="0 0 54 54" fill="none" xmlns="http://www.w3.org/2000/svg">
<path d="M27.0002 0.333252C12.2802 0.333252 0.333496 12.2799 0.333496 26.9999C0.333496 41.7199 12.2802 53.6666 27.0002 53.6666C41.7202 53.6666 53.6668 41.7199 53.6668 26.9999C53.6668 12.2799 41.7202 0.333252 27.0002 0.333252ZM27.0002 8.33325C31.4268 8.33325 35.0002 11.9066 35.0002 16.3333C35.0002 20.7599 31.4268 24.3333 27.0002 24.3333C22.5735 24.3333 19.0002 20.7599 19.0002 16.3333C19.0002 11.9066 22.5735 8.33325 27.0002 8.33325ZM27.0002 46.1999C20.3335 46.1999 14.4402 42.7866 11.0002 37.6133C11.0802 32.3066 21.6668 29.3999 27.0002 29.3999C32.3068 29.3999 42.9202 32.3066 43.0002 37.6133C39.5602 42.7866 33.6668 46.1999 27.0002 46.1999Z" fill="#BFBFBF"/>
</svg>
